# xmcd CD database file
#
# Track frame offsets:
#	150
#	21630
#	44605
#	61015
#	81645
#	98035
#	114867
#	129885
#	153785
#	170287
#	187170
#	206955
#	227955
#	246080
#
# Disc length: 3511 seconds
#
# Revision: 1
# Processed by: cddbd v1.5.1PL2 Copyright (c) Steve Scherf et al.
# Submitted via: CDex 1.51
#
DISCID=be0db50e
DTITLE=Thielemans, Teupen, Kuhn - Just Friends
DYEAR=1986
DGENRE=Jazz
TTITLE0=Just Friends
TTITLE1=Sunny
TTITLE2=Chairman of the Board
TTITLE3=Come Sunday
TTITLE4=Blues for Caspar
TTITLE5=Waltz for Sonny
TTITLE6=A Child is Born
TTITLE7=Satin Doll
TTITLE8=Autumn Leaves
TTITLE9=The Man I Love
TTITLE10=The Days of Wine and Roses
TTITLE11=Blue Skies
TTITLE12=Greensleeves
TTITLE13=Gone with the Wind
EXTD=mit Ack van Rooyen (fl. h.), Jean Warland (b), Bruno Castelucci (dr) YEAR: 1986
EXTT0=
EXTT1=
EXTT2=
EXTT3=
EXTT4=
EXTT5=
EXTT6=
EXTT7=
EXTT8=
EXTT9=
EXTT10=
EXTT11=
EXTT12=
EXTT13=
PLAYORDER=
